<?xml version="1.0" encoding="UTF-8" standalone="no"?>
<svg
   xmlns:dc="http://purl.org/dc/elements/1.1/"
   xmlns:cc="http://creativecommons.org/ns#"
   xmlns:rdf="http://www.w3.org/1999/02/22-rdf-syntax-ns#"
   xmlns:svg="http://www.w3.org/2000/svg"
   xmlns="http://www.w3.org/2000/svg"
   xmlns:sodipodi="http://sodipodi.sourceforge.net/DTD/sodipodi-0.dtd"
   xmlns:inkscape="http://www.inkscape.org/namespaces/inkscape"
   version="1.1"
   id="Layer_1"
   x="0px"
   y="0px"
   width="640"
   viewBox="0 0 640 640"
   enable-background="new 0 0 2560 2560"
   xml:space="preserve"
   sodipodi:docname="wave-blue-on-gray3.svg"
   inkscape:version="0.92.4 (5da689c313, 2019-01-14)"
   inkscape:export-filename="/home/konstant/siglyx/pcloud/promo/logo/sine/siglyx-white-on-black.svg.png"
   inkscape:export-xdpi="96"
   inkscape:export-ydpi="96"
   height="640"><metadata
   id="metadata97"><rdf:RDF><cc:Work
       rdf:about=""><dc:format>image/svg+xml</dc:format><dc:type
         rdf:resource="http://purl.org/dc/dcmitype/StillImage" /><dc:title></dc:title></cc:Work></rdf:RDF></metadata><defs
   id="defs95" /><sodipodi:namedview
   pagecolor="#ffffff"
   bordercolor="#666666"
   borderopacity="1"
   objecttolerance="10"
   gridtolerance="10"
   guidetolerance="10"
   inkscape:pageopacity="0"
   inkscape:pageshadow="2"
   inkscape:window-width="1627"
   inkscape:window-height="977"
   id="namedview93"
   showgrid="false"
   inkscape:zoom="0.78"
   inkscape:cx="-16.155888"
   inkscape:cy="276.83134"
   inkscape:window-x="82"
   inkscape:window-y="0"
   inkscape:window-maximized="0"
   inkscape:current-layer="Layer_1"
   height="1px"
   fit-margin-top="0"
   fit-margin-left="0"
   fit-margin-right="0"
   fit-margin-bottom="0" />

<rect
   style="opacity:1;fill:#e6e1dc;fill-opacity:1;stroke:none;stroke-width:1.05317152;stroke-miterlimit:4;stroke-dasharray:none;stroke-opacity:1"
   id="rect904"
   width="640"
   height="640"
   x="0"
   y="0" /><path
   id="path4"
   style="opacity:1;fill:#162950;fill-opacity:1;stroke:none;stroke-width:1.33299708"
   d="m 185.97284,39.003906 c -15.22456,0.128482 -30.25855,5.19469 -42.36314,14.423828 -23.35454,17.806599 -36.39972,40.944694 -47.735295,64.927736 -17.585406,37.20479 -29.92299,75.82951 -40.691551,114.83008 -6.799584,24.62579 -13.561722,49.26024 -20.491342,73.85937 -0.761145,2.70159 -1.888092,5.63994 -3.902283,7.72266 -0.325667,0.33675 -0.658975,0.66615 -0.985662,1.00195 0.02761,1.69448 -0.404067,3.61251 -1.449657,5.73828 -0.780742,1.5873 -1.63214,3.15943 -2.343117,4.76172 -0.115252,0.25987 -0.231658,0.66711 -0.342945,1.08399 0.466193,0.048 0.857233,0.0968 1.348779,0.14453 -0.06057,2.23232 0.0743,2.88475 -0.464009,4.1289 -0.0039,0.52606 -0.07012,1.14131 -0.07196,1.37696 -0.02093,2.74316 -1.058895,5.21495 -2.637059,7.66797 -0.08999,0.26749 -0.189848,0.53379 -0.299737,0.80078 0.04787,-0.0729 0.09236,-0.1375 0.170027,-0.26368 0.09902,-0.16087 -0.03598,0.22227 -0.256487,0.47266 -0.446873,1.0407 -1.029633,2.09416 -1.711953,3.24805 0.230315,1.56769 0.261186,5.32207 0.242101,5.71679 -0.131105,3.17967 -0.02553,2.42624 -2.954089,6.1504 0.02608,0.0837 0.06122,0.27911 0.190224,0.7871 0.544672,2.32186 0.476131,3.78479 -0.216173,5.30079 1.715055,-0.12377 2.292015,0.37324 3.769727,-1.01368 2.946917,-0.96532 3.049339,-1.04786 3.570844,-1.08398 1.973754,-1.27943 4.164305,-2.52604 6.323212,-3.03711 4.406585,-3.16865 10.015485,-6.29928 16.658219,-5.75586 -3.641322,2.07162 -0.60977,0.30668 0.971232,-0.37305 0.166157,-0.2227 0.347977,-0.4381 0.605238,-0.61328 1.632145,-1.11141 3.407834,-2.12039 5.167501,-3.14062 1.653376,-6.1001 3.245283,-12.21341 5.083948,-18.27149 -1.209665,-2.09021 -0.358019,-5.89301 -0.325706,-6.35937 0.138853,-0.0892 0.288059,-0.17207 0.429429,-0.25977 0.560994,-1.11256 1.154828,-2.21674 1.818582,-3.30273 -0.265937,0.18877 -0.01528,-0.0812 0.363113,-0.47071 -0.10391,0.11132 -0.213294,0.22226 -0.288184,0.34376 -0.0258,0.0421 -0.04907,0.0848 -0.07487,0.12695 0.186628,-0.13246 0.701163,-0.51243 1.210467,-0.89649 0.169799,-0.81756 0.503429,-1.61992 1.083642,-2.38867 0.427612,-0.56659 0.575906,-1.38353 1.432371,-1.64453 0.194864,-0.0594 0.167798,0.0929 0.07198,0.30274 0.163529,-0.2544 0.344785,-0.50323 0.501477,-0.75977 -1.663066,-2.30537 -1.1129,-3.21662 0.639817,-3.3457 0.239272,-1.04632 0.704706,-2.07193 1.069234,-3.10352 0.137563,-0.38917 0.718915,-1.40189 0.870375,-1.13281 0.232623,-1.48161 0.509841,-2.46278 1.709062,-3.51563 0.0063,-2.03929 -0.06335,-2.49526 1.64852,-5.15625 0.277054,-0.43063 0.875983,-1.4216 1.265212,-1.64843 0.360358,-0.63559 0.85251,-1.16069 1.660048,-1.95508 0.243804,-0.51549 0.51704,-1.02251 0.835798,-1.51758 0.314637,-0.48869 0.981634,-1.64823 1.394899,-1.73047 0.159936,-0.29273 0.351334,-0.55851 0.576445,-0.82617 -0.566479,-2.94521 0.460914,-4.7469 1.965535,-7.51172 0.520032,-0.95557 1.024413,-1.91542 1.536121,-2.87305 1.193089,-2.23281 2.793446,-3.97227 4.565139,-5.25781 -0.230668,-0.48536 -0.398995,-0.98185 -0.466856,-1.49414 -0.239187,-1.80511 2.350658,-4.84031 5.011858,-6.0918 0.213051,-0.43368 0.440784,-0.86362 0.720517,-1.27929 0.296377,-0.44043 1.038419,-1.48716 1.383367,-1.5918 0.735455,-1.41071 1.413181,-2.53484 0.919393,-1.11914 0.0854,-0.14193 0.186287,-0.27952 0.276663,-0.41992 0.70348,-1.64187 1.111616,-2.60889 2.763891,-3.69532 0.188302,-0.23569 0.374743,-0.47206 0.559116,-0.70898 -0.544498,0.48491 -0.986666,0.85944 -0.714749,0.5293 0.431366,-0.52374 0.942211,-1.01236 1.464068,-1.49805 -0.0551,-0.0201 -0.06947,-0.0195 -0.161402,-0.0547 0.31843,-0.69691 0.618654,-1.39835 0.919395,-2.09961 -1.1e-5,-0.0167 -0.0021,-0.0262 -0.0021,-0.043 0.0153,-0.0183 0.03153,-0.0364 0.04591,-0.0547 0.161452,-0.37483 0.31456,-0.7516 0.48994,-1.12305 0.11668,-0.85796 0.35899,-1.71624 0.83291,-2.58789 0.66333,-0.0966 1.32793,-0.23053 1.9915,-0.36719 8.04449,-10.05484 15.58735,-20.4888 24.93253,-29.5664 15.82323,-15.37015 36.68593,-23.32621 57.58036,-23.47461 16.25122,-0.11542 32.52038,4.49295 46.4499,14.00781 17.84226,12.1875 30.28334,28.03807 42.11817,45.98633 -0.17435,0.59919 -0.34498,1.19769 -0.51878,1.79687 -0.63943,-0.28392 -1.32844,-0.57456 -2.614,-0.9414 0.18751,0.15677 0.37456,0.31379 0.56201,0.4707 l 2.89356,2.12891 c 0.0265,0.0116 0.0453,0.0202 0.072,0.0312 -0.70453,-0.5527 -1.70558,-1.32451 -1.19892,-0.99023 0.54444,0.35921 1.04309,0.74917 1.54478,1.13672 0.19759,0.0845 0.43887,0.19418 0.5735,0.24219 0.47063,0.402 1.95855,1.56037 1.41221,1.20508 -0.70123,-0.45606 -1.34405,-0.95159 -1.98571,-1.44727 -0.11932,-0.051 -0.21931,-0.0913 -0.34586,-0.14649 0.15452,0.1212 0.35613,0.2767 0.45537,0.35743 l -0.52742,-0.38867 c -0.69158,-0.30181 -1.34012,-0.57732 -1.04042,-0.30469 2.04217,1.85764 4.59655,3.43113 6.89386,5.14648 0.006,0.85773 0.0384,1.71466 0.0345,2.57227 0.26412,0.30748 0.52118,0.61558 0.76663,0.92773 1.40659,1.11412 1.43467,1.16346 2.02607,2.54883 0.30409,-0.53493 0.98501,1.03164 1.41798,1.56055 0.49653,0.60659 0.75795,1.03431 0.91937,1.4414 0.15053,0.17944 0.30876,0.36674 0.40347,0.49024 0.41485,0.54085 2.23716,3.53274 2.31138,5.25586 0.34294,0.50903 0.78386,1.12052 1.23355,1.79492 0.0233,0.0179 0.0283,0.0251 0.015,0.0195 0.0432,0.0648 0.076,0.1266 0.11819,0.19141 0.59009,0.358 1.17948,0.71624 1.76959,1.07421 -3.84484,-2.11299 -0.47541,-0.31284 2.02318,1.45704 0.56025,0.39679 -2.42999,-1.45211 -1.85603,-1.06446 1.03863,0.70149 2.32963,1.24139 3.26535,2.00196 0.59554,0.30509 0.62334,0.31368 1.45831,0.74414 -0.6059,-0.25219 -2.32945,-1.09103 -1.81855,-0.75586 6.7467,4.42619 3.91984,1.13579 7.62299,6.53515 0.2212,0.20781 0.4193,0.42612 0.63405,0.63672 0.0315,0.0298 0.0984,0.0712 0.11831,0.0957 0.0484,0.06 0.0708,0.0881 0.11831,0.14648 0.25715,0.25864 0.53321,0.50956 0.76949,0.77734 0.17829,0.20208 0.0194,0.0894 -0.22192,-0.10742 2.50469,3.05081 3.25295,3.78523 3.08093,6.88672 0.0269,2.40912 -0.0414,4.8151 -0.15565,7.22266 0.32022,3.68954 1.37786,7.13449 -1.26809,10.25 9.14613,10.25884 11.27242,19.67077 17.98971,45.37695 12.59635,48.20416 25.10506,96.4902 45.86197,142.78711 10.45125,23.31128 20.9759,46.72715 40.56473,65.89844 6.24434,6.11138 13.48326,11.57189 20.81697,16.76367 18.30597,12.95992 58.1745,12.44881 79.43489,-5.82422 18.73013,-16.09793 31.15559,-35.00726 41.73202,-55.30664 19.34194,-37.1223 31.26114,-76.24238 42.81276,-115.44727 7.92239,-26.88754 15.07674,-53.93812 22.92665,-80.84179 0.90949,-3.11762 2.49482,-6.26765 4.52193,-9.08008 -7.76711,-4.38164 -8.28535,-5.06861 -5.53352,-7.67188 -0.22719,-0.0611 -0.45213,-0.12607 -0.68017,-0.18554 -3.28517,-1.0259 -5.18792,-2.39672 -6.78144,-4.04493 -0.84066,-0.22849 -1.34112,-0.82045 -1.84164,-1.41406 -0.34541,-0.24147 -0.68166,-0.48941 -1.01447,-0.74023 -0.0701,10e-6 -0.14012,3e-5 -0.21041,0 h -0.002 c -0.30751,-1.3e-4 -0.6147,0.005 -0.92227,0.004 -0.0583,-2.5e-4 -0.0482,-0.002 -0.10365,-0.002 -1.35229,1.34855 -2.93419,2.59134 -4.59974,4.00977 -0.0176,0.0151 0.002,0.004 0,0.01 -3.10685,1.70576 -4.88182,2.91657 -7.574,2.74024 -2.01185,0.90944 -5.00783,1.35779 -8.06397,1.23242 -0.61644,0.75477 -1.25022,1.50023 -1.91656,2.23242 0.17048,0.36644 0.47729,0.74197 0.27955,1.08594 -1.3686,2.38059 -2.64658,4.14993 -3.68613,5.48047 0.0481,-0.1163 0.10595,-0.1183 0.17869,0.0605 0.2392,0.58921 0.27362,1.16534 0.20173,1.73243 0.14728,-0.0608 0.33148,-0.0854 0.47841,-0.15039 -0.20179,0.0905 -0.30408,0.1373 -0.48415,0.21874 -0.2932,2.02027 -2.1872,3.90112 -3.35471,5.63672 -0.28866,0.0987 -0.63088,0.24274 -0.99716,0.40821 -0.1815,1.58782 -0.72012,3.06135 -2.14427,4.59375 0.0935,0.16264 0.0313,0.43843 -0.0258,0.61132 -0.5341,1.61699 -1.12574,3.23508 -1.99725,4.78321 0.73649,-0.50227 -2.4025,4.57555 -1.9079,6.49414 0.47181,2.26481 0.36146,1.69714 -2.16731,5.25976 -0.65902,1.20148 -1.31807,2.40204 -1.97707,3.60352 -0.19158,0.21428 -0.66756,0.71667 -0.57354,0.64258 0.008,-0.007 -0.0713,0.0745 -0.0519,0.0566 -0.88132,0.94589 -1.77078,1.88738 -2.60247,2.85351 -0.0318,0.0367 0.0701,-0.009 0.17002,-0.0586 -0.40377,0.21883 -0.81586,0.43028 -1.22775,0.64258 -0.50372,0.769 -1.18374,1.49978 -1.68022,2.27148 -0.0406,0.0631 -0.0499,0.13453 -0.0749,0.20117 0.21523,-0.26211 0.85531,-1.05125 0.64557,-0.7871 -1.04376,1.30557 -2.08615,2.61238 -3.12989,3.91796 0.003,0.0295 0.009,0.0584 0.0149,0.0879 -0.91813,0.4884 -1.85551,0.96305 -2.78118,1.44531 -0.1269,0.0965 -0.26054,0.17823 -0.38331,0.2832 0.5928,-0.29978 1.18538,-0.60062 1.77822,-0.90039 0.17966,-0.0867 0.59193,-0.40483 0.53893,-0.25977 -0.45976,1.25859 -0.89664,2.14865 -1.40068,2.8711 0.32732,0.40762 0.62426,0.7958 0.8531,1.13281 0.19814,0.0941 0.40525,0.17631 0.59946,0.27539 0.13999,0.0715 0.0474,0.25431 -0.14697,0.48633 0.21907,0.48424 0.0991,0.68772 -0.48418,0.47852 -0.11667,0.10295 -0.23788,0.2067 -0.37753,0.32031 0.004,0.005 0.008,0.009 0.0149,0.0137 0.13516,-0.0343 0.28406,-0.0521 0.46979,-0.0352 1.464,0.13392 -0.0852,2.24304 -1.6543,3.95313 0.0211,0.002 0.0422,0.005 0.0635,0.008 -0.10328,0.14174 -0.20694,0.29319 -0.31124,0.44336 -0.22616,0.95952 -0.66269,1.79442 -1.27388,2.5293 -0.0205,0.0541 -0.0427,0.1234 -0.0635,0.17968 0.0529,0.25126 -0.0217,0.46896 -0.23058,0.64844 -0.0524,0.15482 -0.0988,0.26025 -0.15274,0.42969 -10.23906,12.24401 -18.74675,25.98412 -31.09438,36.40625 -22.55073,19.03364 -49.73718,26.96131 -81.33701,16.23633 -12.29291,-4.17199 -22.39991,-10.78625 -31.26154,-18.93555 -8.36332,-7.69119 -15.87754,-15.87111 -22.51452,-25.18164 -7.7918,1.21832 -8.84691,1.20444 -8.84785,-2.40039 -0.24346,-0.10474 -0.12319,-0.4206 0,-0.73828 10e-4,-0.18203 -0.001,-0.30492 0,-0.50195 10e-4,-0.0181 0.0464,-0.80417 0.12675,-1.58204 0.003,-0.29677 0.0383,-0.51948 0.10365,-0.71093 0.0937,-0.60573 0.20878,-1.13642 0.37756,-1.15625 0.0948,-0.0112 0.14055,0.0449 0.17581,0.11523 0.0302,-0.0508 0.0362,-0.0648 0.0692,-0.12109 -0.19374,-0.22731 -0.39542,-0.45204 -0.58219,-0.68164 -2.09776,-4.16607 -2.32759,-3.06244 -2.16439,-6.00977 0.0149,-0.25916 0.35309,-3.6874 0.58216,-3.8418 -2.49049,-2.82079 -2.68257,-3.14693 -2.32291,-6.67773 0.0487,-0.47799 0.12523,-0.95434 0.1873,-1.43164 0.0184,-0.10538 7.3e-4,-0.22323 -0.0104,-0.33789 -0.50663,-0.63355 -0.84249,-1.06144 -1.52172,-1.9043 -0.30755,-0.38167 0.61746,0.76298 0.95972,1.13086 0.0362,0.0387 -0.0206,-0.0897 -0.0318,-0.13477 -0.94543,-1.22599 -1.89048,-2.45173 -2.83593,-3.67773 0.30067,0.34895 0.55447,0.71717 0.89919,1.04688 0.098,0.0938 0.45415,0.29471 0.42368,0.22851 -9.6e-4,-0.004 -10e-4,-0.008 -0.002,-0.0117 -0.98202,-1.22413 -2.20195,-2.35625 -3.12989,-3.59961 -0.54132,-0.7253 1.30435,1.36416 1.96842,2.04102 0.0255,0.0261 -0.0345,-0.0589 -0.0519,-0.0879 -1.31107,-1.44927 -2.62291,-2.89839 -3.934,-4.34766 0.2819,-0.68676 0.0932,-0.0712 -0.58218,-1.58789 -0.45075,-1.0124 -0.96917,-2.01579 -1.30271,-3.04883 -0.0408,-0.12672 0.27769,-0.24631 0.70899,-0.32812 -0.55397,-0.55584 -1.10604,-1.11213 -1.66004,-1.66797 0.0334,0.036 0.0756,0.0992 0.10651,0.12891 0.31275,0.2984 -0.59527,-0.61085 -0.89343,-0.91602 0.26181,0.26266 0.525,0.52445 0.78679,0.78711 -1.1662,-1.25166 -3.72619,-6.15927 -2.78693,-5.27734 0.39324,0.36921 0.63426,0.80641 1.02313,1.17773 0.11905,0.11352 0.32317,0.17139 0.48418,0.25781 -1.08068,-1.21662 -2.15556,-2.43551 -3.24518,-3.64843 -0.16978,-0.19016 0.89517,0.98125 1.29981,1.48828 0.12343,0.15478 -0.33991,-0.27015 -0.46114,-0.42578 -0.45501,-0.58417 -0.48156,-0.60735 -0.83867,-1.0625 -0.004,-0.007 -0.009,-0.0145 -0.0173,-0.0215 -5.19737,-6.62355 -0.86369,-0.7318 -2.18457,-3.64258 -0.43998,-0.68872 -1.91419,-2.77771 -1.54765,-2.5 -0.83326,-1.38484 -1.55697,-2.79979 -2.27971,-4.21289 -0.2559,-0.50034 2.91862,3.88502 1.26809,1.33594 -1.39187,-1.37999 -5.37557,-7.26562 -2.1961,-4.26758 0.18071,0.17042 -0.31064,-0.36178 -0.46689,-0.54297 -0.45474,-0.84633 -0.91134,-1.69273 -1.3661,-2.53906 -2.14256,-1.59947 -2.95277,-3.66197 -3.24517,-5.82617 -7.09463,-6.86346 -9.48521,-15.49921 -11.79334,-24.38281 C 321.4389,245.20279 308.11431,194.59945 288.73528,145.37329 278.9469,120.50866 267.502,96.177724 250.26286,74.267818 240.56923,61.94782 228.98975,50.987361 212.99229,44.271724 204.31183,40.627739 195.10788,38.927063 185.97312,39.004146 Z M 579.57639,327.89062 c 0.002,-0.0227 0.002,-0.0457 0.004,-0.0684 -0.0319,0.0131 -0.0717,0.0187 -0.098,0.0371 -0.0319,0.0222 -0.0642,0.0783 -0.098,0.11718 0.0676,-0.0306 0.11957,-0.0539 0.19023,-0.0859 z m -0.37466,-1.86132 c -2.40288,3.07546 -3.27808,3.51813 -0.14697,2.09765 -0.0202,-0.61697 0.0114,-1.77402 0.14697,-2.09765 z M 185.67888,63.779297 c 9.89992,-0.174516 20.20219,3.875114 30.07124,13.058594 16.14973,15.027826 26.18607,32.975129 34.96492,53.099609 -0.12792,0.68905 -0.25772,1.37933 -0.38616,2.06836 -0.74503,-0.61625 -1.49161,-1.23261 -4.15879,-2.18945 -1.70833,-1.42077 -3.45221,-2.81405 -5.12139,-4.26758 -28.64163,-24.93939 -76.8054,-27.621419 -108.85477,-0.55274 -2.29925,1.94209 -5.099,3.45166 -8.02362,6.59571 -0.70387,0.0722 -1.40544,0.14455 -2.10966,0.21679 0.35964,-0.95637 0.71823,-1.91249 1.39204,-4.63671 2.05072,-4.1236 3.64459,-8.46963 6.23674,-12.32813 8.0665,-12.00753 15.16603,-24.734575 25.10835,-35.523438 8.95828,-9.721147 19.66101,-15.34323 30.8811,-15.541015 z m 483.26389,29.515625 c -0.0605,0.02684 -0.1213,0.05324 -0.18157,0.08008 -0.0502,0.07411 -0.0888,0.151478 -0.13543,0.226562 0.0576,-0.04436 0.11481,-0.08876 0.17294,-0.132812 0.037,-0.04191 0.076,-0.08298 0.11259,-0.125 0.008,-0.01519 0.0224,-0.03374 0.0319,-0.04883 z m -0.14414,0.173828 c -0.0632,0.07155 -0.12952,0.141609 -0.19311,0.212891 0.059,-0.04272 0.10153,-0.07388 0.16141,-0.117188 0.0291,-0.04641 0.0664,-0.09901 0.0948,-0.144531 -0.0213,0.01614 -0.0421,0.03265 -0.0634,0.04883 z m -0.19311,0.212891 c -0.0183,0.01327 -0.031,0.02401 -0.049,0.03711 -0.009,0.01837 -0.0238,0.03627 -0.0345,0.05469 0.0277,-0.03073 0.0561,-0.06103 0.0834,-0.0918 z m -0.049,0.03711 c 0.0235,-0.03898 0.0449,-0.07842 0.0692,-0.117188 -0.21199,0.163581 -0.43628,0.320256 -0.63692,0.490235 -0.25678,0.217549 0.1119,-0.04335 0.56777,-0.373047 z M 186.33888,130.7793 c 8.0594,0.0436 16.09298,2.20813 24.22356,6.49218 10.82554,5.70422 19.32604,13.18846 26.39088,22.12696 9.26701,11.72496 18.0385,23.62163 24.9729,39.52929 -4.41577,-2.28765 -5.84917,-3.06737 -7.32327,-3.78711 -12.38621,-6.04732 -23.99753,-14.49849 -37.32533,-17.64843 -33.63791,-7.94991 -66.3963,-5.63827 -95.09302,13.96093 -1.8037,1.23188 -4.09712,1.94177 -6.78148,4.39649 -1.03249,-0.046 -2.06568,-0.0927 -3.09818,-0.13867 0.42084,-0.97924 0.84052,-1.95805 1.8474,-4.63282 6.27584,-9.6433 12.08634,-19.53683 18.95231,-28.86328 7.42537,-10.08631 16.52109,-18.92149 28.85503,-25.20703 8.23387,-4.1961 16.3198,-6.27212 24.3792,-6.22851 z m 522.84585,62.47265 c -10e-4,6.3e-4 -0.002,9.6e-4 -0.004,0.002 -0.0191,0.0221 -0.0385,0.0443 -0.0578,0.0664 -0.002,0.008 -0.003,0.0125 -0.008,0.0215 0.0242,-0.0299 0.0481,-0.0599 0.072,-0.0899 z m -447.662,6.20313 c 0,0 -0.0587,0.84096 -0.73782,0.41992 z m 365.44309,47.02539 c -0.008,0.01 -0.0351,0.0282 -0.0433,0.0371 -0.0253,0.0274 -0.0583,0.0969 -0.0864,0.13281 0.0149,-0.0113 0.0349,-0.0315 0.049,-0.043 0.026,-0.0395 0.0546,-0.0883 0.0808,-0.12695 z m -524.87772,5.12891 c -0.008,-0.0129 -0.26999,0.21908 -0.55334,0.52148 0.15883,-0.13659 0.32108,-0.27063 0.46111,-0.41406 0.0669,-0.0686 0.0952,-0.1029 0.0924,-0.10742 z m -2.230703,4.74218 c -0.215719,0.25102 -0.355399,0.45961 -0.423664,0.61719 0.149451,-0.13867 0.290548,-0.28107 0.43517,-0.42187 -0.0051,-0.0578 -0.0051,-0.13523 -0.01034,-0.19532 z m 170.879203,2.36328 c 0.24427,0.19645 0.47474,0.40114 0.73208,0.58985 0.25818,0.18935 -0.1111,-0.16295 -0.47556,-0.51172 -0.0953,-0.0268 -0.15396,-0.0504 -0.25652,-0.0781 z m -176.058252,4.4336 c -0.106164,0.30375 -0.230513,0.65168 -0.458225,1.21289 0.134492,-0.26911 0.192355,-0.43074 0.302613,-0.66992 0.02471,-0.21776 0.0735,-0.40272 0.155612,-0.54297 z m 16.542932,13.64062 c -0.47244,0.29183 -0.94946,0.57995 -1.39489,0.89063 -0.0316,0.0219 0.70718,-0.34184 1.46695,-0.77344 -0.0233,-0.0382 -0.05,-0.0795 -0.072,-0.11719 z m 169.86474,1.77735 c -0.0211,-0.009 -0.0157,0.004 0.0319,0.0449 0.0268,0.0233 0.0658,0.0435 0.0952,0.0664 0.15102,0.0989 0.29937,0.19942 0.44958,0.29883 0.0682,0.0389 0.13856,0.0772 0.2104,0.11524 -0.36429,-0.25385 -0.71341,-0.49401 -0.7868,-0.52539 z m -9.47324,11.60156 c -0.0951,0.14175 -0.17402,0.259 -0.26516,0.39648 0.44581,0.30976 0.89129,0.62112 1.33439,0.93555 0.003,-0.2577 0.0231,-0.52594 0.0662,-0.81445 -0.30849,-0.0919 -0.56746,-0.16365 -0.82422,-0.24024 -0.13885,-0.12689 -0.17892,-0.1568 -0.31126,-0.27734 z m 29.02218,1.38672 c -0.0404,-0.008 -0.077,-0.007 -0.10939,0.004 0.50284,0.49097 1.02789,0.97224 1.54479,1.45703 -0.15151,-0.22685 -0.94221,-1.36091 -1.43526,-1.46093 z m -22.00153,1.88476 c -0.55364,-0.33981 2.94827,2.09256 2.36038,1.59766 -0.74302,-0.50179 -2.22896,-1.51698 -2.36038,-1.59766 z m 320.88959,14.56446 c -0.4407,0.40793 -0.86747,0.82116 -1.24505,1.2539 -0.13543,0.15524 0.60049,-0.47061 1.4266,-1.1914 -0.0535,-0.0194 -0.12507,-0.0424 -0.18155,-0.0625 z M 63.523474,320.90625 c -0.327169,0.39756 -0.552743,0.78393 -0.743577,1.1543 0.02792,-0.0162 0.05558,-0.0326 0.08363,-0.0488 0.177799,-0.31094 0.367018,-0.63953 0.659985,-1.10547 z m 285.172426,3.38672 c 0.22551,0.41962 0.33962,0.87624 0.67729,1.25976 -0.22562,-0.41987 -0.45171,-0.83989 -0.67729,-1.25976 z m 223.73299,14.88476 c -0.49016,0.45271 -1.05786,0.91256 -1.72344,1.38477 2.11154,1.26224 1.72288,-0.33747 1.72344,-1.38477 z m -551.378074,6.76563 c -0.03799,0.0405 -0.07676,0.0808 -0.115166,0.12109 0.03513,-0.0317 0.0735,-0.0625 0.10947,-0.0937 0.0012,-0.01 0.004,-0.0156 0.0055,-0.0273 z m 346.704044,9.12695 c 0.17487,0.24736 0.64376,1.00431 0.52453,0.74219 -0.0964,-0.21156 -0.13408,-0.2614 -0.20462,-0.40039 -0.1055,-0.11434 -0.21538,-0.22707 -0.31991,-0.3418 z m -349.078861,2.18164 c -0.104483,0.13501 -0.164828,0.20536 -0.276685,0.35157 0.0188,-0.0193 0.04514,-0.0351 0.06339,-0.0547 0.105444,-0.11288 0.145649,-0.1983 0.21327,-0.29688 z m 541.092111,6.66211 c -0.65754,0.34029 -1.30083,0.69197 -1.92522,1.0586 -0.0197,0.046 -0.0434,0.0909 -0.0635,0.13672 0.50898,-0.23159 1.26173,-0.58935 1.64569,-0.75586 0.0854,-0.0951 0.23179,-0.29951 0.34296,-0.43946 z m -620.071619,6.4961 c -0.03188,0.006 -0.06329,0.0133 -0.0952,0.0195 0.07791,0.31786 0.240788,0.93376 0.285323,1.13086 -0.0605,-0.30307 -0.129709,-0.71659 -0.190205,-1.15039 z m 7.646059,0.11914 c -0.09696,0.0324 -0.03304,0.80289 0.164266,0.80468 0.05491,5e-4 0.07497,-4.9e-4 0.12971,0 0.04959,-0.0866 0.166699,-0.31295 0.198852,-0.36523 0.04279,-0.0697 0.166196,-0.16255 0.256504,-0.24609 -0.08116,-0.0498 -0.16264,-0.0989 -0.236333,-0.1543 -0.219483,0.45561 0.02007,0.74786 -0.363131,0.23047 -0.06935,-0.20871 -0.11762,-0.28033 -0.149865,-0.26953 z m 428.30911,4.3125 c 0.0301,0.11018 0.0525,0.22578 0.10938,0.3164 0.15912,0.12639 0.32816,0.24764 0.49282,0.3711 -0.22859,-0.26137 -0.40142,-0.45999 -0.60233,-0.6875 z m 178.23419,1.68359 c -0.0927,0.0456 -0.2,0.0911 -0.30262,0.13672 0.0189,0.55543 -0.0446,1.24423 -0.11258,1.82227 0.27636,-0.56678 0.31108,-1.3153 0.41504,-1.95899 z m -1.53037,0.61328 c -0.13136,0.0453 -0.27187,0.0898 -0.40924,0.13477 -1.77863,1.25344 -3.48396,2.4312 -3.21925,2.5625 0.0421,0.0208 0.0717,0.038 0.11258,0.0586 0.77449,-0.3338 1.54385,-0.65913 2.32293,-1 0.22178,0.0261 0.44367,0.0538 0.66574,0.0801 0.11607,-0.62841 0.25435,-1.25154 0.52741,-1.83594 z m -6.07535,3.82031 c -0.0668,0.0359 -0.17003,0.0981 -0.24497,0.14063 0.0613,-0.026 0.12294,-0.0502 0.18448,-0.0762 0.0157,-0.021 0.0464,-0.0436 0.0607,-0.0645 z M 390.72761,439.5957 c 1.15419,0.67619 2.31058,1.35116 5.06089,2.95508 l -0.002,0.002 c 2.67886,1.7265 5.3545,3.45624 8.03801,5.17774 39.66804,25.45026 93.6388,21.44046 124.42646,-0.0996 2.40849,-1.68485 5.283,-2.88238 8.06684,-4.37305 0.6608,1.38201 1.49995,2.25765 1.26235,2.76563 -8.07839,17.26563 -18.82428,33.31119 -34.07152,46.56054 -23.01474,19.9997 -51.51996,19.71843 -75.07146,-0.0547 -16.64508,-13.97385 -28.10637,-30.82899 -37.58183,-49.92188 -0.0426,-1.00391 -0.0858,-2.00796 -0.12691,-3.01172 z m 146.37609,1.76563 c 0.86536,0.0824 1.7327,0.16447 1.1557,1.47851 -0.38464,-0.49276 -0.77103,-0.98574 -1.1557,-1.47851 z m -611.503293,22.80859 c -0.0045,0.003 -0.01034,0.005 -0.01476,0.008 0.0074,-10e-4 0.0155,-4.5e-4 0.02301,-0.002 z m 604.257823,41.5586 c 0,0 -0.1988,0.83652 -0.81268,0.33203 z m -127.77825,1.55664 c 0.79045,0.59272 1.5831,1.18594 4.25677,2.22656 40.52559,33.09731 81.08246,29.18093 121.95656,-0.83984 -7.11006,20.28224 -18.29452,37.79011 -33.71703,52.93359 -8.18908,8.04064 -19.07462,14.05535 -32.89564,12.17773 -13.50885,-1.83517 -24.48596,-8.16448 -31.25863,-17.82617 -10.26856,-14.64923 -18.79259,-30.19128 -28.88962,-46.60742 0.18362,-0.68777 0.36456,-1.37669 0.54759,-2.06445 z m -460.613926,60.21679 c -0.140483,0.0369 -0.801683,0.30963 -1.492888,0.60743 -0.04146,0.0546 -0.07437,0.0947 -0.115253,0.14843 1.115383,-0.50071 1.737087,-0.78975 1.608175,-0.75586 z m -0.15562,0.50977 c -0.0029,10e-4 -0.0058,0.0157 -0.0087,0.0215 0.0087,-0.003 0.01475,-0.005 0.02302,-0.008 -0.0044,-0.005 -0.01041,-0.0154 -0.01475,-0.0137 z m -1.89062,22.88086 c -0.09458,0.0451 -0.176526,0.077 -0.265151,0.11719 -0.0087,0.0873 -0.221562,0.24937 -0.09502,0.27148 0.01594,0.003 0.03292,0.003 0.04898,0.006 0.105947,-0.13072 0.211247,-0.26169 0.311264,-0.39453 z"
   inkscape:connector-curvature="0" />
















<path
   d="m 146.808,317.60753 c 0,7.5579 0,13.7248 0,20.82608 -10.2236,0 -19.795,0 -30.3214,0 0,-9.59582 0,-19.57672 0,-30.27542 8.392,0 16.1062,0.0968 23.8168,-0.0316 5.8182,-0.0968 6.711,3.48588 6.501,9.48086 z"
   id="path22"
   inkscape:connector-curvature="0"
   style="opacity:1;fill:#162950;fill-opacity:1;stroke:none;stroke-width:1.55544317" /><path
   d="m 190.1722,339.37159 c -6.3922,0 -11.4916,0 -17.084,0 0,-10.53932 0,-19.72728 0,-30.08564 9.7986,0 19.345,0 29.8468,0 0,9.08554 0,18.67462 0,29.34048 -3.5678,0.23174 -7.5192,0.48834 -12.7628,0.74516 z"
   id="path24"
   inkscape:connector-curvature="0"
   style="opacity:1;fill:#162950;fill-opacity:1;stroke:none;stroke-width:1.55544317" /><path
   d="m 259.8506,317.91057 c 0,7.46126 0,13.60766 0,20.60516 -10.2356,0 -19.818,0 -30.3394,0 0,-9.55064 0,-19.01128 0,-29.44244 9.8244,0 19.3926,0 29.414,0 0.3016,2.46512 0.6108,4.99376 0.9228,8.83728 z"
   id="path26"
   inkscape:connector-curvature="0"
   style="opacity:1;fill:#162950;fill-opacity:1;stroke:none;stroke-width:1.55544317" /><path
   d="m 398.69235,308.52588 c 9.5356,-0.3355 17.7774,-0.3355 27.2498,-0.3355 0,10.0595 0,19.57196 0,30.15882 -8.9316,0 -18.501,0 -30.276,0 0.5578,-9.49632 1.1452,-19.49202 3.0262,-29.82332 z"
   id="path28"
   inkscape:connector-curvature="0"
   style="opacity:1;fill:#162950;fill-opacity:1;stroke:none;stroke-width:1.55544317" /><path
   d="m 483.15735,331.27148 c 0.4788,5.80092 -1.3794,8.08368 -6.0002,8.04864 -7.7354,-0.0586 -15.472,-0.016 -24.234,-0.016 0,-10.29276 0,-20.30592 0,-30.76074 9.5756,0 18.7754,0 30.2376,0 0,7.36776 0,14.37438 0,22.72804 z"
   id="path30"
   inkscape:connector-curvature="0"
   style="opacity:1;fill:#162950;fill-opacity:1;stroke:none;stroke-width:1.55544317" /><path
   d="m 507.89195,320.51534 c 0.142,-4.3667 0.2844,-7.4325 0.4702,-11.43864 9.8926,0 19.3422,0 29.8038,0 0,9.72058 0,19.29978 0,29.59026 -9.5306,0 -19.1776,0 -30.2742,0 0,-5.74576 0,-11.29832 2e-4,-18.15162 z"
   id="path32"
   inkscape:connector-curvature="0"
   style="opacity:1;fill:#162950;fill-opacity:1;stroke:none;stroke-width:1.55544317" />


























</svg>