<?xml version="1.0" encoding="UTF-8" standalone="no"?>
<svg
   xmlns:dc="http://purl.org/dc/elements/1.1/"
   xmlns:cc="http://creativecommons.org/ns#"
   xmlns:rdf="http://www.w3.org/1999/02/22-rdf-syntax-ns#"
   xmlns:svg="http://www.w3.org/2000/svg"
   xmlns="http://www.w3.org/2000/svg"
   xmlns:sodipodi="http://sodipodi.sourceforge.net/DTD/sodipodi-0.dtd"
   xmlns:inkscape="http://www.inkscape.org/namespaces/inkscape"
   version="1.1"
   id="Layer_1"
   x="0px"
   y="0px"
   width="312.9241"
   viewBox="0 0 312.9241 291.84763"
   enable-background="new 0 0 2560 2560"
   xml:space="preserve"
   sodipodi:docname="siglyx-logo.svg"
   inkscape:version="0.92.4 (5da689c313, 2019-01-14)"
   inkscape:export-filename="/home/konstant/siglyx/pcloud/promo/logo/sine/siglyx-white-on-black.svg.png"
   inkscape:export-xdpi="96"
   inkscape:export-ydpi="96"
   height="291.84763"><metadata
   id="metadata97"><rdf:RDF><cc:Work
       rdf:about=""><dc:format>image/svg+xml</dc:format><dc:type
         rdf:resource="http://purl.org/dc/dcmitype/StillImage" /><dc:title></dc:title></cc:Work></rdf:RDF></metadata><defs
   id="defs95" /><sodipodi:namedview
   pagecolor="#ffffff"
   bordercolor="#666666"
   borderopacity="1"
   objecttolerance="10"
   gridtolerance="10"
   guidetolerance="10"
   inkscape:pageopacity="0"
   inkscape:pageshadow="2"
   inkscape:window-width="1627"
   inkscape:window-height="977"
   id="namedview93"
   showgrid="false"
   inkscape:zoom="0.2799099"
   inkscape:cx="-1409.9694"
   inkscape:cy="94.924445"
   inkscape:window-x="82"
   inkscape:window-y="0"
   inkscape:window-maximized="0"
   inkscape:current-layer="Layer_1"
   height="1px"
   fit-margin-top="0"
   fit-margin-left="0"
   fit-margin-right="0"
   fit-margin-bottom="0" />

<path
   d="m 66.24529,109.14549 c -2.37985,4.4845 -5.29885,8.59685 -9.0952,11.96505 -3.84795,3.41395 -8.35645,5.5667 -13.75905,5.8119 0,2.57115 0,4.97865 0,7.54805 7.1117,0.3667 12.98425,-2.64225 18.66425,-6.80605 0.1118,7.6864 -10.08845,18.6403 -18.6436,20.44715 0,2.35075 0,4.7488 0,7.34675 6.16115,0.8522 10.6977,-2.7944 15.573,-5.88585 0.1333,7.2758 -8.52765,17.947 -15.6317,19.60965 0,2.26705 0,4.57055 0,7.19895 3.7429,0.79095 7.12135,-0.41755 9.88385,-2.75675 2.7294,-2.31115 5.25625,-4.99005 7.36715,-7.8768 4.69605,-6.422 7.3977,-13.8632 10.04905,-21.2899 5.2972,-14.8381 8.6166,-30.2127 12.29755,-45.488566 0.60325,-2.50358 1.12635,-5.0275 1.7818,-7.51691 0.1848,-0.70186 0.6244,-1.38234 1.08945,-1.95757 3.99605,-4.94259 8.4517,-9.43827 13.78955,-12.913 6.74825,-4.3928 14.31095,-5.6926 22.2324,-5.17154 8.6447,0.56865 15.8406,4.41171 22.028,10.22295 8.801,8.26602 8.5928,8.35569 11.42925,21.065536 3.39585,15.21635 6.7685,30.45905 12.36435,45.07335 2.81755,7.35855 5.65425,14.7501 10.9352,20.8018 1.6834,1.92915 3.635,3.6527 5.6121,5.29155 4.9351,4.091 15.68335,3.92935 21.41495,-1.8388 5.04945,-5.08155 8.3993,-11.05015 11.2506,-17.45795 5.2144,-11.7182 8.4275,-24.0669 11.5417,-36.4425 2.1358,-8.48745 4.0647,-17.0269 6.18095,-25.519436 0.32615,-1.30908 0.97475,-2.63582 1.7971,-3.70631 3.6451,-4.7451 8.02755,-8.72848 12.9706,-12.10343 4.9287,-3.36517 10.45725,-4.89895 16.32225,-5.42319 1.01495,-0.0907 2.0372,-0.0981 3.1964,-0.15026 0,-2.45212 0,-4.76993 0,-7.52957 -7.7079,-0.6558 -14.85265,1.32244 -22.12605,5.27881 -1.99465,0.47976 -1.57765,-0.22512 -1.09515,-0.96275 2.18035,-4.43753 5.1895,-8.29125 8.70695,-11.70197 3.91335,-3.79455 8.5721,-6.12041 14.4208,-6.00544 0,-2.47524 0,-4.85867 0,-7.52725 -6.7277,-0.97632 -12.3993,1.65067 -18.0117,5.80738 -0.32345,0.24247 -0.63515,0.33142 -0.67905,0.51536 -0.44245,0.53924 -0.841,0.89454 -1.2395,1.24984 -0.12095,-0.10671 -0.2419,-0.21346 -0.3628,-0.32022 0.31295,-0.64372 0.62585,-1.28744 0.92545,-2.01759 -0.013,-0.0864 0.122,-0.19719 0.122,-0.19719 2.6114,-4.27476 5.0072,-8.70237 7.89755,-12.77943 2.6539,-3.74359 6.76145,-5.46802 11.39165,-6.31301 0,-2.45453 0,-4.86707 0,-7.53512 -6.4915,-0.33651 -11.45425,2.96283 -16.4758,6.56274 0.94355,-4.67222 3.37435,-8.51511 5.90045,-12.30356 2.56605,-3.84836 5.52275,-7.2100195 10.6159,-7.6807695 0,-2.63401 0,-5.04683 0,-7.68787002 -4.9628,-0.0932 -8.88305,1.84932002 -12.3381,4.98864002 -3.4984,3.17871 -5.99275,7.0701695 -8.18575,11.2176195 -5.8971,11.15255 -9.57945,23.10579 -12.74305,35.23101 -2.7322,10.47197 -5.36425,20.97523 -7.72925,31.53435 -0.60745,2.71213 -1.8899,4.73934 -3.613,6.64804 -3.9979,4.42861 -8.13885,8.75511 -13.5349,11.490426 -13.07145,6.62615 -25.85865,6.3178 -37.92525,-2.362026 -3.7506,-2.69786 -6.95595,-6.15064 -10.4328,-9.23311 -2.5663,-2.27514 -3.29455,-5.34919 -3.99855,-8.52188 -3.5458,-15.97887 -7.13805,-31.95214 -12.36245,-47.4911 -2.63885,-7.84889 -5.7242,-15.52965 -10.3717,-22.44583 -2.6133,-3.8889895 -5.73555,-7.3486295 -10.0483,-9.4685195 -6.24045,-3.0674 -13.48335,-1.77119002 -18.7046,2.89011 -6.29615,5.6209195 -9.8129,12.9250595 -12.86885,20.4956495 -4.74085,11.74424 -8.0667,23.93677 -10.9698,36.24788 -1.8331,7.77349 -3.6565,15.54936 -5.52465,23.31444 -0.2052,0.8528 -0.50895,1.78021 -1.05195,2.43765 -3.95515,4.78867 -8.18265,9.28177 -13.4065,12.77288 -5.8781,3.928356 -12.3667,5.633106 -19.5988,5.831106 0,2.49925 0,5.00565 0,7.69375 7.74535,0.10225 14.962,-1.3581 22.08435,-5.52825 0.5664,0.3021 0.6288,0.8145 0.69125,1.3269 m -2.8337,16.5928 c 0,0 0.1962,0.0881 0.1962,0.0881 0,0 -0.1848,-0.18255 -0.0435,0.3952 -0.2534,0.69625 -0.5069,1.39245 -1.39785,2.3886 -0.0235,-0.37305 -0.0475,-0.74615 0.088,-1.5799 0.44445,-0.46945 0.88895,-0.9389 1.1574,-1.292 m 71.12795,-97.071586 c -0.46055,-0.44849 -0.93035,-0.888 -1.38035,-1.34682 -7.7215,-7.87249 -20.70635,-8.71951 -29.34655,-0.17488 -0.61985,0.61306 -1.37435,1.09007 -2.1628,2.08253 -0.18975,0.0228 -0.37945,0.0455 -0.5693,0.0684 0.0969,-0.3019 0.19395,-0.6038 0.3756,-1.46374 0.55285,-1.30167 0.9826,-2.67398 1.6814,-3.89197 2.17465,-3.79035 4.08885,-7.80736 6.7692,-11.21303 4.546,-5.7762295 10.75615,-6.9683095 16.4321,-0.78398 4.3538,4.74375 7.0589,10.40948 9.4256,16.76207 -0.0345,0.2175 -0.0695,0.43505 -0.1041,0.65255 -0.20085,-0.19453 -0.40175,-0.38905 -1.1208,-0.69109 m 43.17905,119.856736 c 10.9253,10.44765 21.859,9.2112 32.87825,-0.2653 -1.9168,6.4024 -4.93145,11.92885 -9.0892,16.7091 -2.2077,2.53815 -5.1425,4.43715 -8.8685,3.84445 -3.64185,-0.5793 -6.60155,-2.57775 -8.4274,-5.6276 -2.7683,-4.62425 -5.0661,-9.53015 -7.78815,-14.71215 0.0495,-0.2171 0.0987,-0.43415 0.148,-0.65125 0.2131,0.1871 0.4262,0.37425 1.147,0.70275 m -2.84405,-21.13695 c 0.7222,0.545 1.4433,1.09135 2.16675,1.63475 10.6941,8.03375 25.24395,6.768 33.544,-0.0315 0.6493,-0.53185 1.42475,-0.9097 2.17525,-1.38025 0.17815,0.43625 0.40415,0.7124 0.3401,0.87275 -2.17785,5.45015 -5.07525,10.5151 -9.18575,14.69745 -6.20455,6.3132 -13.8892,6.22465 -20.23845,-0.017 -4.48735,-4.41105 -7.5768,-9.7321 -10.1313,-15.75905 -0.0115,-0.3169 -0.023,-0.63385 -0.034,-0.9507 0.31115,0.21345 0.6223,0.4269 1.36375,0.9332 M 99.28599,49.510994 c -0.27835,-0.0145 -0.5568,-0.029 -0.83515,-0.0435 0.11345,-0.30911 0.2268,-0.61827 0.49825,-1.46259 1.6919,-3.04405 3.25855,-6.16686 5.10955,-9.11089 2.0018,-3.18389 4.4538,-5.97285 7.7789,-7.95698 4.43955,-2.64911 8.7188,-2.62182 13.10265,0.0828 2.91845,1.80062 5.21,4.1635 7.1146,6.98507 2.4983,3.70115 4.8632,7.45666 6.73265,12.47815 -1.19045,-0.72214 -1.5769,-0.96859 -1.9743,-1.19578 -3.3392,-1.90894 -6.4693,-4.57671 -10.06235,-5.57103 -9.06845,-2.50951 -17.90015,-1.77949 -25.6365,4.4073 -0.48625,0.38886 -1.1046,0.61253 -1.8283,1.3874 m 41.36685,19.69769 c -10.8611,-6.29801 -22.44605,-7.11829 -34.3698,-4.15854 -3.6992,0.91825 -7.1681,2.76442 -10.8988,4.57721 -0.1546,-0.29077 -0.30915,-0.58154 -0.3073,-1.39842 2.5237,-3.5621 4.76015,-7.3768 7.62685,-10.63733 7.5836,-8.62545 19.4626,-9.8536 28.04605,-2.98848 4.8101,3.84716 8.1642,8.85073 11.35475,14.51636 -0.047,0.18914 -0.0936,0.37828 -0.1405,0.56742 -0.2532,-0.13163 -0.5065,-0.26326 -1.31125,-0.47822 m 76.1101,38.083266 c 0.21735,0.03 0.4347,0.0604 0.652,0.0905 -0.1639,0.26335 -0.3278,0.52665 -0.5478,1.33565 -2.76035,3.865 -5.05385,8.20245 -8.38265,11.49235 -6.07945,6.00825 -13.4086,8.51045 -21.9276,5.12495 -3.31405,-1.31695 -6.0382,-3.4047 -8.4272,-5.97715 -3.2837,-3.5359 -6.0827,-7.39945 -8.37145,-12.21545 0.9143,0.26775 1.2928,0.3004 1.5859,0.4758 9.14665,5.472 19.0302,6.5271 29.4314,5.3039 5.65125,-0.6645 10.64105,-2.89145 15.9874,-5.63055 M 59.68389,149.6425 c -0.15555,0.1037 -0.31105,0.2074 -0.46665,0.3111 0.026,-0.2333 0.0519,-0.46665 0.46665,-0.3111 m 151.11605,-2.20875 c 0,0 0.2196,-0.1048 0.2196,-0.1048 0,0 -0.0541,0.26405 -0.2196,0.1048 m 2.48395,-19.95625 c -0.1037,-0.15555 -0.2074,-0.31115 -0.3111,-0.4667 0.2333,0.026 0.46665,0.0519 0.3111,0.4667 m -74.8042,-76.695616 c 0,0 0.19905,-0.13267 0.19905,-0.13267 0,0 -0.016,0.26558 -0.19905,0.13267 z"
   id="path4"
   inkscape:connector-curvature="0"
   style="opacity:1;fill:#162950;fill-opacity:1;stroke:none;stroke-width:0.38886079" />
<path
   d="m 97.71389,280.57424 c 6.805,2.9643 13.69925,3.68865 20.63615,2.75025 8.39175,-1.1352 13.48655,-5.11055 14.5362,-15.3237 0.2614,-2.5439 0.039,-5.13765 0.039,-8.5886 -7.65075,8.3338 -16.83275,10.20235 -26.8093,8.6155 -7.41295,-1.17905 -13.53515,-4.876 -17.90835,-11.1636 -8.12165,-11.67685 -6.07805,-28.69505 4.5371,-37.61115 9.97075,-8.3748 28.7764,-10.1967 40.74865,2.9637 0,-3.0399 0,-5.6496 0,-8.5246 2.80175,0 5.1943,0 7.79115,0 0.0645,0.9335 0.1941,1.94105 0.19485,2.94875 0.012,17.1082 0.0599,34.2166 -0.0185,51.32445 -0.0305,6.5925 -2.27505,12.3775 -7.06655,17.06625 -3.26715,3.1972 -7.36035,4.9199 -11.66655,5.76155 -10.5499,2.06205 -20.79805,0.98845 -30.4534,-4.05365 -6.1715,-3.2229 -6.3945,-4.25175 -2.15885,-9.5998 0.23485,-0.29655 0.5633,-0.519 0.79255,-0.7258 2.2181,1.3616 4.3799,2.68865 6.806,4.16045 m 18.5166,-59.6925 c -3.6117,-1.10255 -7.2037,-0.3829 -10.62915,0.58335 -12.74465,3.5952 -15.96425,17.5741 -11.98605,27.5197 4.94095,12.35275 21.5148,14.464 30.6461,8.5255 7.169,-4.6623 9.5005,-11.416 8.80295,-19.92945 -0.6588,-8.03995 -8.391,-16.2041 -16.83385,-16.6991 z"
   id="path6"
   inkscape:connector-curvature="0"
   style="opacity:1;fill:#162950;fill-opacity:1;stroke:none;stroke-width:0.38886079" />
<path
   d="m 246.84474,215.29634 c 0.0963,16.9233 0.22435,33.5057 0.0557,50.0851 -0.047,4.6102 -0.95905,9.1995 -2.88335,13.51465 -2.9205,6.54895 -8.1541,10.4534 -14.86635,11.92265 -9.01465,1.97325 -17.96735,1.1328 -26.4675,-2.7342 -2.81255,-1.2796 -5.512,-2.81625 -7.75855,-5.6289 1.31725,-2.052 2.66235,-4.14735 4.0881,-6.3683 1.86285,1.26135 3.32315,2.2781 4.811,3.25265 5.36555,3.5146 11.28755,4.67665 17.60305,4.07815 1.9119,-0.18125 3.84465,-0.32685 5.7141,-0.73495 4.8732,-1.06375 7.7949,-4.4178 9.5137,-8.83825 1.6085,-4.1364 1.322,-8.48475 1.16945,-13.2258 -9.06375,8.69585 -19.2369,9.6754 -30.08935,5.9372 -7.23685,-2.49285 -11.03855,-8.2361 -12.56735,-15.4793 -0.607,-2.87595 -0.78425,-5.88115 -0.82095,-8.83165 -0.1047,-8.419 -0.0568,-16.8403 -0.027,-25.2605 0.012,-3.4182 0.1357,-3.50435 3.4755,-3.563 1.5452,-0.027 3.09125,-0.005 5.12075,-0.005 0.1982,1.5731 0.53505,3.03405 0.5411,4.49635 0.0345,8.29025 -0.0668,16.58125 0.008,24.8708 0.022,2.4252 0.1421,4.93565 0.77635,7.25405 2.56335,9.37055 10.74065,11.42695 18.284,10.3244 9.78705,-1.43055 15.2915,-8.20855 15.36005,-18.2419 0.0557,-8.16085 0.0115,-16.3223 0.034,-24.48345 0.005,-1.256 0.12715,-2.5117 0.219,-4.2066 2.5973,0 4.8942,-0.091 7.17335,0.0693 0.51585,0.0365 0.97025,0.94635 1.53325,1.79615 z"
   id="path8"
   inkscape:connector-curvature="0"
   style="opacity:1;fill:#162950;fill-opacity:1;stroke:none;stroke-width:0.38886079" />
<path
   d="m 16.34229,213.44159 c 10.3038,-1.92125 19.75195,-0.61965 28.8123,4.4738 -0.7388,2.8702 -1.63195,5.301 -3.95215,7.111 -1.5821,-0.8136 -3.0144,-1.66505 -4.5339,-2.31145 -6.23815,-2.6537 -12.68395,-3.16535 -19.22445,-1.4112 -1.4421,0.3868 -2.8481,1.29515 -4.00867,2.27395 -3.81403,3.2167 -3.64946,8.707 0.72467,11.05995 3.2053,1.7242 6.97775,2.43595 10.542,3.44065 4.69245,1.32275 9.49535,2.28505 14.1248,3.78975 3.71265,1.20665 6.42785,3.83675 7.62355,7.6794 1.83015,5.8818 0.44255,12.61655 -4.498,16.42885 -4.05455,3.12865 -8.7065,4.59325 -13.615,4.9328 -6.047,0.41825 -12.1279,0.31245 -18.02207,-1.6205 C 6.74274,268.11694 3.346,266.67734 0,263.89364 c 1.21204,-2.2914 2.43048,-4.5948 3.76932,-7.1259 7.96818,6.01025 16.60107,7.18175 25.70097,6.15335 3.2994,-0.37285 6.2872,-1.46065 8.08895,-4.5575 1.9182,-3.2972 1.32585,-6.899 -2.0229,-8.6957 -2.66585,-1.43025 -5.73375,-2.1923 -8.69785,-2.96395 -3.34915,-0.87185 -6.81785,-1.2851 -10.1663,-2.15915 -2.476,-0.6463 -4.92296,-1.5386 -7.24431,-2.61895 -10.08225,-4.69195 -8.82975,-18.99485 -2.31156,-23.8858 2.74032,-2.05625 5.67398,-3.5488 9.22597,-4.59845 z"
   id="path10"
   inkscape:connector-curvature="0"
   style="opacity:1;fill:#162950;fill-opacity:1;stroke:none;stroke-width:0.38886079" />
<path
   d="m 261.92164,217.22909 c -0.77955,-1.1587 -1.42765,-2.07485 -2.40765,-3.46035 3.517,0 6.54045,0 9.95405,0 5.1424,6.6891 10.53855,13.7081 16.1245,20.97395 5.6029,-7.2755 10.9524,-14.222 16.24515,-21.09475 3.00495,0 5.9207,0 9.6666,0 -6.8241,9.7633 -14.17915,18.30015 -20.95045,27.56765 7.31085,9.43505 14.5683,18.8012 22.37025,28.8701 -3.6016,0.042 -6.4729,0.2187 -9.3173,0.0165 -0.789,-0.0561 -1.62295,-1.13905 -2.22405,-1.9153 -4.66415,-6.0232 -9.27405,-12.0884 -13.9074,-18.1355 -0.53875,-0.70315 -1.11825,-1.375 -1.94015,-2.3814 -3.27105,4.27115 -6.38665,8.3431 -9.50645,12.4118 -2.1207,2.76585 -4.386,5.4347 -6.31545,8.3278 -1.03995,1.5593 -2.24035,1.88755 -3.89855,1.8292 -2.3,-0.0809 -4.60505,-0.0205 -7.64225,-0.0205 7.7118,-10.0648 14.971,-19.53885 22.30405,-29.1094 -6.23995,-8.00605 -12.3317,-15.8219 -18.5549,-23.88015 z"
   id="path12"
   inkscape:connector-curvature="0"
   style="opacity:1;fill:#162950;fill-opacity:1;stroke:none;stroke-width:0.38886079" />
<path
   d="m 184.47289,270.20704 c -4.78555,1.34345 -9.30145,1.32295 -13.61405,-0.27385 -4.63355,-1.7156 -8.54385,-6.2534 -8.62805,-13.0691 -0.1359,-10.99945 -0.036,-22.0018 -0.0355,-33.003 2e-4,-9.7069 5e-5,-19.4138 1e-4,-29.1207 0,-1.27345 0,-2.54695 0,-3.70595 3.20655,-1.31345 5.22385,-1.31945 8.5839,-0.0455 0,1.20025 5e-5,2.4842 5e-5,3.76815 1.5e-4,19.5432 -0.005,39.08645 0.011,58.62965 0,1.28525 -0.0608,2.6279 0.2696,3.8454 1.2906,4.757 5.39655,7.08295 10.44705,6.09985 0.9991,-0.19455 2.02105,-0.27155 3.1808,-0.422 1.1032,2.4928 1.5081,4.83125 -0.21475,7.2968 z"
   id="path14"
   inkscape:connector-curvature="0"
   style="opacity:1;fill:#162950;fill-opacity:1;stroke:none;stroke-width:0.38886079" />
<path
   d="m 60.31699,250.63304 c 0.0205,-12.2888 0.0395,-24.18865 0.0737,-36.0885 0,-0.23665 0.18005,-0.4729 0.35935,-0.91445 2.4507,0 4.98315,0 7.49165,0 0.8439,2.73735 1.1704,49.32415 0.36705,56.5847 -1.3307,0 -2.71605,0 -4.10135,0 -1.2668,0 -2.53365,0 -4.19045,0 0,-6.58835 0,-12.8906 0,-19.58175 z"
   id="path16"
   inkscape:connector-curvature="0"
   style="opacity:1;fill:#162950;fill-opacity:1;stroke:none;stroke-width:0.38886079" />
<path
   d="m 61.11239,201.05684 c -2.0999,-2.0845 -3.51225,-4.0778 -2.2022,-6.9716 1.45105,-3.2051 4.58095,-4.6014 7.87515,-3.3526 3.15655,1.19665 4.589,4.24705 3.5421,7.5428 -0.8722,2.7456 -4.4458,4.42495 -7.55815,3.53105 -0.489,-0.1405 -0.948,-0.38555 -1.6569,-0.74965 z"
   id="path18"
   inkscape:connector-curvature="0"
   style="opacity:1;fill:#162950;fill-opacity:1;stroke:none;stroke-width:0.38886079" />
<path
   d="m 64.94024,85.302404 c 0.0635,2.39259 0.0635,4.44202 0.0635,6.65703 -2.63145,0 -5.03965,0 -7.6261,0 0,-2.48048 0,-4.87896 0,-7.86548 2.6058,0.30066 5.0525,0.58298 7.5626,1.20845 z"
   id="path20"
   inkscape:connector-curvature="0"
   style="opacity:1;fill:#162950;fill-opacity:1;stroke:none;stroke-width:0.38886079" />
<path
   d="m 107.01129,86.686014 c 0,1.88947 0,3.4312 0,5.20652 -2.5559,0 -4.94875,0 -7.58035,0 0,-2.39896 0,-4.89418 0,-7.56886 2.098,0 4.02655,0.0242 5.9542,-0.008 1.45455,-0.0242 1.67775,0.87147 1.62525,2.37022 z"
   id="path22"
   inkscape:connector-curvature="0"
   style="opacity:1;fill:#162950;fill-opacity:1;stroke:none;stroke-width:0.38886079" />
<path
   d="m 117.85234,92.127024 c -1.59805,0 -2.8729,0 -4.271,0 0,-2.63483 0,-4.93182 0,-7.52141 2.44965,0 4.83625,0 7.4617,0 0,2.27139 0,4.66866 0,7.33512 -0.89195,0.0579 -1.8798,0.12209 -3.1907,0.18629 z"
   id="path24"
   inkscape:connector-curvature="0"
   style="opacity:1;fill:#162950;fill-opacity:1;stroke:none;stroke-width:0.38886079" />
<path
   d="m 135.27194,86.761774 c 0,1.86531 0,3.40191 0,5.15129 -2.5589,0 -4.9545,0 -7.58485,0 0,-2.38766 0,-4.75282 0,-7.36061 2.4561,0 4.84815,0 7.3535,0 0.0754,0.61628 0.1527,1.24844 0.2307,2.20932 z"
   id="path26"
   inkscape:connector-curvature="0"
   style="opacity:1;fill:#162950;fill-opacity:1;stroke:none;stroke-width:0.38886079" />
<path
   d="m 177.66924,84.417424 c 2.3839,-0.0839 4.44435,-0.0839 6.81245,-0.0839 0,2.51487 0,4.89299 0,7.5397 -2.2329,0 -4.62525,0 -7.569,0 0.13945,-2.37408 0.2863,-4.873 0.75655,-7.45583 z"
   id="path28"
   inkscape:connector-curvature="0"
   style="opacity:1;fill:#162950;fill-opacity:1;stroke:none;stroke-width:0.38886079" />
<path
   d="m 198.78549,90.103824 c 0.1197,1.45023 -0.34485,2.02092 -1.50005,2.01216 -1.93385,-0.0147 -3.868,-0.004 -6.0585,-0.004 0,-2.57319 0,-5.07648 0,-7.69018 2.3939,0 4.69385,0 7.5594,0 0,1.84194 0,3.59359 0,5.68201 z"
   id="path30"
   inkscape:connector-curvature="0"
   style="opacity:1;fill:#162950;fill-opacity:1;stroke:none;stroke-width:0.38886079" />
<path
   d="m 204.96914,87.414794 c 0.0355,-1.09168 0.0711,-1.85813 0.11755,-2.85966 2.47315,0 4.83555,0 7.45095,0 0,2.43014 0,4.82494 0,7.39756 -2.38265,0 -4.7944,0 -7.56855,0 0,-1.43644 0,-2.82458 5e-5,-4.5379 z"
   id="path32"
   inkscape:connector-curvature="0"
   style="opacity:1;fill:#162950;fill-opacity:1;stroke:none;stroke-width:0.38886079" />
<path
   d="m 253.01609,84.315154 c 1.4491,-0.11902 2.02195,0.346 2.01415,1.4996 -0.013,1.9332 -0.005,3.86653 -0.005,6.05592 -2.57375,0 -5.0764,0 -7.69035,0 0,-2.39222 0,-4.69099 0,-7.55651 1.8417,0 3.59255,0 5.67985,10e-4 z"
   id="path34"
   inkscape:connector-curvature="0"
   style="opacity:1;fill:#162950;fill-opacity:1;stroke:none;stroke-width:0.38886079" />
<path
   d="m 266.26274,92.127024 c -1.73625,2e-5 -3.14725,2e-5 -4.7977,2e-5 0,-2.59139 0,-4.95519 0,-7.56828 2.43235,0 4.82485,0 7.40035,0 0,2.38657 0,4.79822 0,7.56824 -0.80445,0 -1.54095,0 -2.60265,2e-5 z"
   id="path36"
   inkscape:connector-curvature="0"
   style="opacity:1;fill:#162950;fill-opacity:1;stroke:none;stroke-width:0.38886079" />
<path
   d="m 43.20304,88.707044 c 0,-1.59712 0,-2.87114 0,-4.26873 2.6339,0 4.9297,0 7.5121,0 0,2.43859 0,4.8258 0,7.45379 -2.2688,0 -4.66445,0 -7.3266,0 -0.0575,-0.88754 -0.12155,-1.87476 -0.1855,-3.18506 z"
   id="path38"
   inkscape:connector-curvature="0"
   style="opacity:1;fill:#162950;fill-opacity:1;stroke:none;stroke-width:0.38886079" />


























</svg>